<svg width="128" height="128" viewBox="0 0 128 128" fill="none" xmlns="http://www.w3.org/2000/svg">
  <defs>
    <linearGradient id="g" x1="18" y1="14" x2="112" y2="115" gradientUnits="userSpaceOnUse">
      <stop stop-color="#ffffff"/>
      <stop offset="0.38" stop-color="#c58cff"/>
      <stop offset="1" stop-color="#6d7cff"/>
    </linearGradient>
    <filter id="glow" x="-25" y="-25" width="178" height="178" filterUnits="userSpaceOnUse" color-interpolation-filters="sRGB">
      <feGaussianBlur stdDeviation="5" result="blur"/>
      <feColorMatrix in="blur" type="matrix" values="0 0 0 0 0.62 0 0 0 0 0.25 0 0 0 0 1 0 0 0 0.75 0" result="glow"/>
      <feBlend in="SourceGraphic" in2="glow" mode="screen"/>
    </filter>
  </defs>
  <path d="M64 8L100 24L91 48L118 34L100 77L75 112L68 74L64 99L60 74L53 112L28 77L10 34L37 48L28 24L64 8Z" fill="url(#g)" filter="url(#glow)"/>
  <path d="M64 23L82 32L75 54L64 43L53 54L46 32L64 23Z" fill="#070812" opacity="0.92"/>
  <path d="M37 58L55 68L50 91L39 74L24 48L37 58Z" fill="#070812" opacity="0.92"/>
  <path d="M91 58L73 68L78 91L89 74L104 48L91 58Z" fill="#070812" opacity="0.92"/>
  <path d="M64 49L71 62L64 75L57 62L64 49Z" fill="#070812" opacity="0.92"/>
</svg>
