<svg width="420" height="260" viewBox="0 0 420 260" fill="none" xmlns="http://www.w3.org/2000/svg">
  <defs>
    <linearGradient id="screen" x1="92" y1="48" x2="322" y2="173" gradientUnits="userSpaceOnUse">
      <stop stop-color="#081326"/>
      <stop offset="0.48" stop-color="#221247"/>
      <stop offset="1" stop-color="#020611"/>
    </linearGradient>
    <linearGradient id="base" x1="60" y1="178" x2="370" y2="236" gradientUnits="userSpaceOnUse">
      <stop stop-color="#2a2252"/>
      <stop offset="0.45" stop-color="#111827"/>
      <stop offset="1" stop-color="#143a58"/>
    </linearGradient>
    <linearGradient id="keys" x1="116" y1="194" x2="312" y2="218" gradientUnits="userSpaceOnUse">
      <stop stop-color="#a855f7"/>
      <stop offset="0.52" stop-color="#29d9ff"/>
      <stop offset="1" stop-color="#a855f7"/>
    </linearGradient>
    <filter id="glow" x="0" y="0" width="420" height="260" filterUnits="userSpaceOnUse">
      <feGaussianBlur stdDeviation="4" result="blur"/>
      <feBlend in="SourceGraphic" in2="blur" mode="screen"/>
    </filter>
  </defs>
  <ellipse cx="215" cy="229" rx="160" ry="18" fill="#8B5CF6" opacity="0.22" filter="url(#glow)"/>
  <path d="M93 42H327C338.046 42 347 50.9543 347 62V180H73V62C73 50.9543 81.9543 42 93 42Z" fill="#0A0D18" stroke="#4B5F91" stroke-width="2"/>
  <path d="M91 59H329V170H91V59Z" fill="url(#screen)"/>
  <path d="M93 170H327L379 218H39L93 170Z" fill="url(#base)" stroke="#4B5F91" stroke-width="2"/>
  <path d="M115 190H305L326 209H94L115 190Z" fill="#080B16" stroke="#26385C"/>
  <path d="M122 196H300L310 204H112L122 196Z" fill="url(#keys)" opacity="0.82"/>
  <path d="M161 66L212 88L263 66L253 112L284 91L260 139L228 158L219 118L210 148L201 118L192 158L160 139L136 91L167 112L161 66Z" fill="#C4B5FD" opacity="0.94" filter="url(#glow)"/>
  <path d="M92 58C131 112 157 91 205 119C263 153 280 102 329 169" stroke="#29D9FF" stroke-width="2" opacity="0.55"/>
  <path d="M96 166C130 115 160 139 196 98C236 52 271 85 327 61" stroke="#B866FF" stroke-width="2" opacity="0.55"/>
  <circle cx="141" cy="110" r="4" fill="#29D9FF"/>
  <circle cx="282" cy="92" r="4" fill="#B866FF"/>
  <circle cx="235" cy="139" r="3" fill="#29D9FF"/>
</svg>
